<svg width="40" height="40" viewBox="0 0 40 40" fill="none" xmlns="http://www.w3.org/2000/svg">
<g clip-path="url(#clip0_0_97)">
<path d="M20 0C19.558 0 19.1341 0.175595 18.8215 0.488155C18.509 0.800716 18.3334 1.22464 18.3334 1.66667V38.3333C18.3334 38.7754 18.509 39.1993 18.8215 39.5118C19.1341 39.8244 19.558 40 20 40C20.4421 40 20.866 39.8244 21.1786 39.5118C21.4911 39.1993 21.6667 38.7754 21.6667 38.3333V1.66667C21.6667 1.22464 21.4911 0.800716 21.1786 0.488155C20.866 0.175595 20.4421 0 20 0V0Z" fill="#FFD6DD"/>
<path d="M13.3334 18.3329H8.33336V13.3329C8.33365 13.1678 8.28494 13.0064 8.19339 12.8691C8.10184 12.7318 7.97159 12.6248 7.81913 12.5616C7.66668 12.4984 7.49889 12.4819 7.33704 12.5141C7.17519 12.5464 7.02657 12.626 6.91002 12.7429L0.243358 19.4095C0.165753 19.4869 0.104181 19.5789 0.0621706 19.6801C0.0201598 19.7814 -0.00146484 19.8899 -0.00146484 19.9995C-0.00146484 20.1092 0.0201598 20.2177 0.0621706 20.3189C0.104181 20.4202 0.165753 20.5121 0.243358 20.5895L6.91002 27.2562C6.98756 27.3335 7.07957 27.3948 7.18081 27.4366C7.28204 27.4783 7.39052 27.4997 7.50002 27.4995C7.60929 27.4998 7.71751 27.4783 7.81836 27.4362C7.97075 27.3732 8.10103 27.2664 8.19271 27.1294C8.28438 26.9923 8.33333 26.8311 8.33336 26.6662V21.6662H13.3334C13.7754 21.6662 14.1993 21.4906 14.5119 21.178C14.8244 20.8655 15 20.4416 15 19.9995C15 19.5575 14.8244 19.1336 14.5119 18.821C14.1993 18.5085 13.7754 18.3329 13.3334 18.3329Z" fill="#FFD6DD"/>
<path d="M39.7567 19.4095L33.09 12.7429C32.9735 12.626 32.8248 12.5464 32.663 12.5141C32.5011 12.4819 32.3334 12.4984 32.1809 12.5616C32.0284 12.6248 31.8982 12.7318 31.8066 12.8691C31.7151 13.0064 31.6664 13.1678 31.6667 13.3329V18.3329H26.6667C26.2246 18.3329 25.8007 18.5085 25.4882 18.821C25.1756 19.1336 25 19.5575 25 19.9995C25 20.4416 25.1756 20.8655 25.4882 21.178C25.8007 21.4906 26.2246 21.6662 26.6667 21.6662H31.6667V26.6662C31.6667 26.8311 31.7156 26.9923 31.8073 27.1294C31.899 27.2664 32.0293 27.3732 32.1817 27.4362C32.2825 27.4783 32.3907 27.4998 32.5 27.4995C32.6095 27.4997 32.718 27.4783 32.8192 27.4366C32.9205 27.3948 33.0125 27.3335 33.09 27.2562L39.7567 20.5895C39.8343 20.5121 39.8958 20.4202 39.9379 20.3189C39.9799 20.2177 40.0015 20.1092 40.0015 19.9995C40.0015 19.8899 39.9799 19.7814 39.9379 19.6801C39.8958 19.5789 39.8343 19.4869 39.7567 19.4095Z" fill="#FFD6DD"/>
</g>
<defs>
<clipPath id="clip0_0_97">
<rect width="40" height="40" fill="white"/>
</clipPath>
</defs>
</svg>
