<svg width="40" height="40" viewBox="0 0 40 40" fill="none" xmlns="http://www.w3.org/2000/svg">
<path d="M35 25H4.99996V10H1.66663V33.3333C1.66663 34.6594 2.19341 35.9312 3.13109 36.8689C4.06877 37.8065 5.34054 38.3333 6.66663 38.3333H33.3333C34.6594 38.3333 35.9311 37.8065 36.8688 36.8689C37.8065 35.9312 38.3333 34.6594 38.3333 33.3333V10H35V25Z" fill="#FFD6DD"/>
<path d="M9.99996 4.99935H30V23.3327H33.3333V3.33268C33.3333 2.89065 33.1577 2.46673 32.8451 2.15417C32.5326 1.84161 32.1087 1.66602 31.6666 1.66602H8.33329C7.89127 1.66602 7.46734 1.84161 7.15478 2.15417C6.84222 2.46673 6.66663 2.89065 6.66663 3.33268V23.3327H9.99996V4.99935Z" fill="#FFD6DD"/>
<path d="M26.6666 10H13.3333V13.3333H26.6666V10Z" fill="#FFD6DD"/>
<path d="M26.6666 16.666H13.3333V19.9993H26.6666V16.666Z" fill="#FFD6DD"/>
</svg>
