<svg width="40" height="40" viewBox="0 0 40 40" fill="none" xmlns="http://www.w3.org/2000/svg">
<path d="M17.6775 21.6567C17.6666 22.0064 17.7935 22.3464 18.0309 22.6033C18.4019 22.9385 18.8379 23.1938 19.3117 23.3533V20.25C18.8683 20.2932 18.4466 20.4627 18.0967 20.7383C17.9625 20.8502 17.8552 20.9909 17.7827 21.1498C17.7101 21.3088 17.6742 21.482 17.6775 21.6567Z" fill="#FFD6DD"/>
<path d="M20.6375 26.1133V29.2916C21.8041 29.1116 22.3875 28.6099 22.3875 27.7866C22.3926 27.6083 22.3592 27.431 22.2896 27.2668C22.22 27.1026 22.1158 26.9553 21.9841 26.8349C21.5837 26.5132 21.1271 26.2685 20.6375 26.1133Z" fill="#FFD6DD"/>
<path d="M25.2875 11.668H14.7125C12.6317 14.0213 5 23.0671 5 29.168C5 32.9021 6.94833 39.168 20 39.168C33.0517 39.168 35 32.9021 35 29.168C35 23.0671 27.3683 14.0213 25.2875 11.668ZM23.6867 30.018C22.8144 30.7097 21.7491 31.1138 20.6375 31.1746V33.3346H19.3117V31.2346C17.9226 31.2586 16.5432 31.0006 15.2567 30.4763V28.3746C15.8969 28.6781 16.5673 28.9136 17.2567 29.0771C17.9273 29.2536 18.616 29.3523 19.3092 29.3713V25.6438L18.4758 25.3355C17.5709 25.0354 16.752 24.5208 16.0892 23.8355C15.5808 23.2339 15.3136 22.4652 15.3392 21.678C15.3302 21.2444 15.422 20.8146 15.6072 20.4225C15.7924 20.0303 16.0661 19.6865 16.4067 19.418C17.2463 18.7779 18.2578 18.403 19.3117 18.3413V16.668H20.6375V18.3121C21.9539 18.353 23.2523 18.6298 24.4708 19.1296L23.75 20.953C22.7566 20.5531 21.7088 20.3045 20.6417 20.2155V23.843L21.3992 24.1321C22.3753 24.4421 23.2705 24.9649 24.02 25.663C24.5058 26.2039 24.7658 26.9104 24.7467 27.6371C24.7573 28.0877 24.6677 28.535 24.4844 28.9468C24.3011 29.3585 24.0286 29.7244 23.6867 30.018Z" fill="#FFD6DD"/>
<path d="M14.3975 10.0007H25.6025L28.2234 5.41732C28.2831 5.31279 28.3195 5.19657 28.33 5.07664C28.3405 4.95671 28.3249 4.83592 28.2843 4.72259C28.2437 4.60926 28.179 4.50608 28.0947 4.42015C28.0103 4.33422 27.9084 4.26758 27.7959 4.22482L26.0225 3.54982L24.2725 7.04315C24.2241 7.14191 24.1567 7.23012 24.074 7.30268C23.9914 7.37524 23.8952 7.43073 23.791 7.46594C23.6868 7.50115 23.5767 7.51538 23.4669 7.50782C23.3572 7.50027 23.2501 7.47106 23.1517 7.4219C23.0533 7.37274 22.9656 7.30459 22.8937 7.22138C22.8218 7.13817 22.7671 7.04154 22.7327 6.93708C22.6983 6.83261 22.6849 6.72237 22.6933 6.61271C22.7017 6.50306 22.7318 6.39615 22.7817 6.29815L24.9084 2.04315C24.9725 1.91626 25.0031 1.77508 24.9972 1.63303C24.9914 1.49098 24.9493 1.35279 24.875 1.23161C24.8006 1.11042 24.6965 1.01026 24.5726 0.940665C24.4486 0.871068 24.3089 0.834343 24.1667 0.833984H15.8334C15.6913 0.833918 15.5516 0.870171 15.4275 0.9393C15.3034 1.00843 15.199 1.10814 15.1243 1.22896C15.0495 1.34978 15.0069 1.4877 15.0005 1.62961C14.9941 1.77153 15.024 1.91274 15.0875 2.03982L17.215 6.29482C17.265 6.39281 17.295 6.49972 17.3034 6.60938C17.3118 6.71904 17.2985 6.82928 17.2641 6.93375C17.2297 7.03821 17.1749 7.13483 17.103 7.21804C17.0311 7.30125 16.9434 7.3694 16.845 7.41857C16.7467 7.46773 16.6395 7.49693 16.5298 7.50449C16.4201 7.51205 16.3099 7.49781 16.2057 7.46261C16.1016 7.4274 16.0054 7.37191 15.9227 7.29935C15.8401 7.22678 15.7726 7.13858 15.7242 7.03982L13.9742 3.54648L12.2 4.22148C12.0874 4.2646 11.9854 4.33165 11.9012 4.41801C11.817 4.50437 11.7526 4.60798 11.7123 4.72168C11.6721 4.83538 11.657 4.95647 11.6681 5.07657C11.6792 5.19667 11.7163 5.31293 11.7767 5.41732L14.3975 10.0007Z" fill="#FFD6DD"/>
</svg>
