<svg width="20" height="20" viewBox="0 0 20 20" fill="none" xmlns="http://www.w3.org/2000/svg">
<path d="M0.5 10C0.5 8.90114 1.40114 8 2.5 8C3.59886 8 4.5 8.90114 4.5 10C4.5 11.0989 3.59886 12 2.5 12C1.40114 12 0.5 11.0989 0.5 10ZM15.5 10C15.5 8.90114 16.4011 8 17.5 8C18.5989 8 19.5 8.90114 19.5 10C19.5 11.0989 18.5989 12 17.5 12C16.4011 12 15.5 11.0989 15.5 10ZM8 10C8 8.90114 8.90114 8 10 8C11.0989 8 12 8.90114 12 10C12 11.0989 11.0989 12 10 12C8.90114 12 8 11.0989 8 10Z" fill="#B1B5C3" stroke="#B1B5C3"/>
</svg>
