<svg width="20" height="20" viewBox="0 0 20 20" fill="none" xmlns="http://www.w3.org/2000/svg">
<g clip-path="url(#clip0_0_169)">
<path d="M10.8837 0.366562C10.395 -0.122187 9.60499 -0.122187 9.11624 0.366562L0.366242 9.11656C0.00874241 9.47406 -0.0987576 10.0116 0.0949924 10.4791C0.287492 10.9466 0.744992 11.2503 1.24999 11.2503H2.49999V18.7503C2.49999 19.4403 3.05874 20.0003 3.74999 20.0003H7.49999V15.0003C7.49999 14.3103 8.05999 13.7503 8.74999 13.7503H11.25C11.94 13.7503 12.5 14.3103 12.5 15.0003V20.0003H16.25C16.9412 20.0003 17.5 19.4403 17.5 18.7503V11.2503H18.75C19.255 11.2503 19.7125 10.9453 19.905 10.4791C20.0987 10.0116 19.9912 9.47406 19.6337 9.11656L10.8837 0.366562Z" fill="#EF466F"/>
</g>
<defs>
<clipPath id="clip0_0_169">
<rect width="20" height="20" fill="white"/>
</clipPath>
</defs>
</svg>
