<svg width="40" height="40" viewBox="0 0 40 40" fill="none" xmlns="http://www.w3.org/2000/svg">
<path d="M27.2559 2.74437C26.93 2.41854 26.4034 2.41854 26.0775 2.74437L18.3334 10.4885L15.5892 7.74437C15.2634 7.41854 14.7367 7.41854 14.4109 7.74437C14.085 8.07021 14.085 8.59687 14.4109 8.92271L17.7442 12.256C17.9067 12.4185 18.12 12.5002 18.3334 12.5002C18.5467 12.5002 18.76 12.4185 18.9225 12.256L27.2559 3.92271C27.5817 3.59687 27.5817 3.07021 27.2559 2.74437Z" fill="#FFD6DD"/>
<path d="M15.955 33.1507C14.6234 32.094 12.3642 30.834 9.16671 30.834C5.96921 30.834 3.71004 32.094 2.37837 33.1507C1.39671 33.9298 0.833374 35.1123 0.833374 36.394V38.334C0.833374 38.7948 1.20671 39.1673 1.66671 39.1673H16.6667C17.1267 39.1673 17.5 38.7948 17.5 38.334V36.394C17.5 35.1123 16.9367 33.9298 15.955 33.1507Z" fill="#FFD6DD"/>
<path d="M9.16663 28.334C11.928 28.334 14.1666 26.0954 14.1666 23.334C14.1666 20.5726 11.928 18.334 9.16663 18.334C6.4052 18.334 4.16663 20.5726 4.16663 23.334C4.16663 26.0954 6.4052 28.334 9.16663 28.334Z" fill="#FFD6DD"/>
<path d="M37.6217 33.1507C36.29 32.094 34.0308 30.834 30.8333 30.834C27.6358 30.834 25.3767 32.094 24.045 33.1507C23.0633 33.9298 22.5 35.1123 22.5 36.394V38.334C22.5 38.7948 22.8733 39.1673 23.3333 39.1673H38.3333C38.7933 39.1673 39.1667 38.7948 39.1667 38.334V36.394C39.1667 35.1123 38.6033 33.9298 37.6217 33.1507Z" fill="#FFD6DD"/>
<path d="M30.8334 28.334C33.5948 28.334 35.8334 26.0954 35.8334 23.334C35.8334 20.5726 33.5948 18.334 30.8334 18.334C28.0719 18.334 25.8334 20.5726 25.8334 23.334C25.8334 26.0954 28.0719 28.334 30.8334 28.334Z" fill="#FFD6DD"/>
</svg>
