<svg width="40" height="40" viewBox="0 0 40 40" fill="none" xmlns="http://www.w3.org/2000/svg">
<path d="M19.1667 19.2493L3.33337 10.916V29.0827C3.33354 29.3862 3.4166 29.684 3.5736 29.9438C3.73059 30.2036 3.95555 30.4155 4.22421 30.5568L19.1667 38.416V19.2493Z" fill="#FFD6DD"/>
<path d="M20.0001 17.8086L35.8334 9.47527L20.7684 1.6486C20.5311 1.52531 20.2675 1.46094 20.0001 1.46094C19.7326 1.46094 19.4691 1.52531 19.2317 1.6486L4.16675 9.47444L20.0001 17.8086Z" fill="#FFD6DD"/>
<path d="M20.8334 19.2493V38.416L35.7759 30.551C36.0437 30.4102 36.268 30.1991 36.425 29.9404C36.5819 29.6818 36.6655 29.3852 36.6667 29.0827V10.916L20.8334 19.2493Z" fill="#FFD6DD"/>
</svg>
