<svg width="20" height="20" viewBox="0 0 20 20" fill="none" xmlns="http://www.w3.org/2000/svg">
<path d="M11.4286 1.66602C9.15529 1.66602 6.97511 2.56907 5.36766 4.17653C3.7602 5.78398 2.85714 7.96416 2.85714 10.2374H0L3.70476 13.9422L3.77143 14.0755L7.61905 10.2374H4.7619C4.7619 6.55173 7.74286 3.57078 11.4286 3.57078C15.1143 3.57078 18.0952 6.55173 18.0952 10.2374C18.0952 13.9232 15.1143 16.9041 11.4286 16.9041C9.59048 16.9041 7.92381 16.1517 6.72381 14.9422L5.37143 16.2946C6.16516 17.0927 7.10904 17.7258 8.14863 18.1573C9.18823 18.5888 10.303 18.8103 11.4286 18.8089C13.7019 18.8089 15.882 17.9058 17.4895 16.2984C19.0969 14.6909 20 12.5107 20 10.2374C20 7.96416 19.0969 5.78398 17.4895 4.17653C15.882 2.56907 13.7019 1.66602 11.4286 1.66602ZM10.4762 6.42792V11.1898L14.5524 13.6089L15.2381 12.4565L11.9048 10.4755V6.42792H10.4762Z" fill="#B1B5C3"/>
</svg>
