<svg width="40" height="40" viewBox="0 0 40 40" fill="none" xmlns="http://www.w3.org/2000/svg">
<path d="M13.3333 16.666H6.66663V21.666H13.3333V16.666Z" fill="#FFD6DD"/>
<path d="M23.3333 16.666H16.6666V21.666H23.3333V16.666Z" fill="#FFD6DD"/>
<path d="M13.3333 25H6.66663V30H13.3333V25Z" fill="#FFD6DD"/>
<path d="M23.3333 25H16.6666V30H23.3333V25Z" fill="#FFD6DD"/>
<path d="M33.3333 16.666H26.6666V21.666H33.3333V16.666Z" fill="#FFD6DD"/>
<path d="M38.3333 5H30V1.66667C30 1.22464 29.8244 0.800716 29.5118 0.488155C29.1993 0.175595 28.7754 0 28.3333 0C27.8913 0 27.4674 0.175595 27.1548 0.488155C26.8423 0.800716 26.6667 1.22464 26.6667 1.66667V5H13.3333V1.66667C13.3333 1.22464 13.1577 0.800716 12.8452 0.488155C12.5326 0.175595 12.1087 0 11.6667 0C11.2246 0 10.8007 0.175595 10.4882 0.488155C10.1756 0.800716 10 1.22464 10 1.66667V5H1.66667C1.22464 5 0.800716 5.17559 0.488155 5.48816C0.175595 5.80072 0 6.22464 0 6.66667L0 36.6667C0 37.1087 0.175595 37.5326 0.488155 37.8452C0.800716 38.1577 1.22464 38.3333 1.66667 38.3333H38.3333C38.7754 38.3333 39.1993 38.1577 39.5118 37.8452C39.8244 37.5326 40 37.1087 40 36.6667V6.66667C40 6.22464 39.8244 5.80072 39.5118 5.48816C39.1993 5.17559 38.7754 5 38.3333 5ZM36.6667 35H3.33333V11.6667H36.6667V35Z" fill="#FFD6DD"/>
</svg>
