<svg width="40" height="40" viewBox="0 0 40 40" fill="none" xmlns="http://www.w3.org/2000/svg">
<path d="M38.1875 14.0125C38.3455 13.9702 38.4857 13.878 38.5871 13.7497C38.6884 13.6213 38.7456 13.4635 38.75 13.3V9C38.75 8.60217 38.592 8.22064 38.3107 7.93934C38.0294 7.65804 37.6478 7.5 37.25 7.5H2.75C2.35218 7.5 1.97064 7.65804 1.68934 7.93934C1.40804 8.22064 1.25 8.60217 1.25 9V13.3C1.25442 13.4635 1.31158 13.6213 1.41294 13.7497C1.51431 13.878 1.65446 13.9702 1.8125 14.0125C3.09619 14.4031 4.22039 15.1959 5.01934 16.274C5.81829 17.352 6.24971 18.6582 6.25 20C6.24971 21.3418 5.81829 22.648 5.01934 23.726C4.22039 24.8041 3.09619 25.5969 1.8125 25.9875C1.65446 26.0298 1.51431 26.122 1.41294 26.2504C1.31158 26.3787 1.25442 26.5365 1.25 26.7V31C1.25 31.3978 1.40804 31.7794 1.68934 32.0607C1.97064 32.342 2.35218 32.5 2.75 32.5H37.25C37.6478 32.5 38.0294 32.342 38.3107 32.0607C38.592 31.7794 38.75 31.3978 38.75 31V26.7C38.7456 26.5365 38.6884 26.3787 38.5871 26.2504C38.4857 26.122 38.3455 26.0298 38.1875 25.9875C36.904 25.5968 35.7799 24.804 34.9812 23.7259C34.1825 22.6479 33.7513 21.3417 33.7513 20C33.7513 18.6583 34.1825 17.3521 34.9812 16.2741C35.7799 15.196 36.904 14.4032 38.1875 14.0125ZM13.75 28.75C13.75 29.0815 13.6183 29.3995 13.3839 29.6339C13.1495 29.8683 12.8315 30 12.5 30C12.1685 30 11.8505 29.8683 11.6161 29.6339C11.3817 29.3995 11.25 29.0815 11.25 28.75V26.25C11.25 25.9185 11.3817 25.6005 11.6161 25.3661C11.8505 25.1317 12.1685 25 12.5 25C12.8315 25 13.1495 25.1317 13.3839 25.3661C13.6183 25.6005 13.75 25.9185 13.75 26.25V28.75ZM13.75 21.25C13.75 21.5815 13.6183 21.8995 13.3839 22.1339C13.1495 22.3683 12.8315 22.5 12.5 22.5C12.1685 22.5 11.8505 22.3683 11.6161 22.1339C11.3817 21.8995 11.25 21.5815 11.25 21.25V18.75C11.25 18.4185 11.3817 18.1005 11.6161 17.8661C11.8505 17.6317 12.1685 17.5 12.5 17.5C12.8315 17.5 13.1495 17.6317 13.3839 17.8661C13.6183 18.1005 13.75 18.4185 13.75 18.75V21.25ZM13.75 13.75C13.75 14.0815 13.6183 14.3995 13.3839 14.6339C13.1495 14.8683 12.8315 15 12.5 15C12.1685 15 11.8505 14.8683 11.6161 14.6339C11.3817 14.3995 11.25 14.0815 11.25 13.75V11.25C11.25 10.9185 11.3817 10.6005 11.6161 10.3661C11.8505 10.1317 12.1685 10 12.5 10C12.8315 10 13.1495 10.1317 13.3839 10.3661C13.6183 10.6005 13.75 10.9185 13.75 11.25V13.75Z" fill="#FFD6DD"/>
</svg>
