<svg width="40" height="40" viewBox="0 0 40 40" fill="none" xmlns="http://www.w3.org/2000/svg">
<g clip-path="url(#clip0_0_11)">
<path d="M39.5117 7.15476L37.845 5.4881C37.27 4.9131 36.3617 4.83643 35.6983 5.30976L13.3 21.3081L4.25668 15.2798C3.59501 14.8381 2.71668 14.9264 2.15335 15.4881L0.48668 17.1548C-0.134987 17.7748 -0.166654 18.7698 0.41168 19.4314L12.0783 32.7648C12.375 33.1048 12.7983 33.3081 13.2483 33.3314C13.2767 33.3314 13.305 33.3331 13.3317 33.3331C13.7533 33.3331 14.16 33.1731 14.4683 32.8848L39.47 9.55143C39.8 9.24309 39.9917 8.81476 40 8.36143C40.0067 7.90976 39.8317 7.47476 39.5117 7.15476Z" fill="#FFD6DD"/>
</g>
<defs>
<clipPath id="clip0_0_11">
<rect width="40" height="40" fill="white"/>
</clipPath>
</defs>
</svg>
