<svg width="40" height="40" viewBox="0 0 40 40" fill="none" xmlns="http://www.w3.org/2000/svg">
<g clip-path="url(#clip0_0_144)">
<path d="M26.1667 23.4271C26.1814 24.0125 26.0659 24.5938 25.8285 25.129C25.5912 25.6642 25.2379 26.1401 24.7942 26.5221C23.6611 27.4205 22.2773 27.9455 20.8334 28.0246V30.8346H19.1067V28.1021C17.3005 28.1337 15.5066 27.7989 13.8334 27.118V24.3855C14.6661 24.7819 15.5385 25.0892 16.4359 25.3021C17.307 25.5322 18.2019 25.6605 19.1025 25.6846V20.8346L18.0142 20.4338C16.8394 20.0446 15.7766 19.3764 14.9167 18.4863C14.2551 17.7047 13.9068 16.7056 13.9392 15.6821C13.928 15.1178 14.0479 14.5586 14.2893 14.0485C14.5308 13.5384 14.8873 13.0912 15.3309 12.7421C16.4227 11.9114 17.7372 11.4246 19.1067 11.3438V9.16797H20.8334V11.3046C22.5456 11.3572 24.2344 11.7171 25.8192 12.3671L24.8734 14.7371C23.5823 14.217 22.2205 13.894 20.8334 13.7788V18.4921L21.8175 18.868C23.0862 19.273 24.2493 19.954 25.2234 20.8621C25.8542 21.5651 26.1917 22.483 26.1667 23.4271ZM16.9825 15.6563C16.9683 16.1108 17.1335 16.5527 17.4425 16.8863C17.9249 17.322 18.4924 17.6529 19.1092 17.858V13.8346C18.5317 13.8903 17.9822 14.1104 17.5259 14.4688C17.353 14.6142 17.2146 14.7961 17.1207 15.0015C17.0267 15.2068 16.9795 15.4305 16.9825 15.6563ZM23.1084 23.6213C23.115 23.3895 23.0716 23.1591 22.981 22.9456C22.8903 22.7322 22.7547 22.5408 22.5834 22.3846C22.0635 21.9656 21.47 21.6471 20.8334 21.4455V25.5763C22.35 25.3441 23.1084 24.6924 23.1084 23.6213Z" fill="#FFD6DD"/>
<path d="M4.16671 20.0008C4.16421 17.1666 4.92317 14.3838 6.36425 11.9433C7.80532 9.50288 9.87558 7.49439 12.3586 6.12787C14.8415 4.76136 17.646 4.08701 20.4788 4.17533C23.3116 4.26365 26.0687 5.11139 28.4617 6.62993L25.9375 8.77077C25.8221 8.86848 25.7354 8.99578 25.6867 9.13902C25.6381 9.28226 25.6294 9.43604 25.6615 9.58386C25.6936 9.73168 25.7653 9.86797 25.869 9.97812C25.9727 10.0883 26.1044 10.1681 26.25 10.2091L35.3059 12.7324C35.3785 12.7531 35.4537 12.7635 35.5292 12.7633C35.7502 12.7633 35.9622 12.6755 36.1185 12.5192C36.2747 12.3629 36.3625 12.1509 36.3625 11.9299C36.3624 11.8951 36.3602 11.8603 36.3559 11.8258L35.2 2.60326C35.1814 2.45413 35.1228 2.31281 35.0304 2.19426C34.938 2.07572 34.8153 1.98436 34.6753 1.92987C34.5352 1.87538 34.383 1.85979 34.2348 1.88474C34.0866 1.90969 33.9479 1.97425 33.8334 2.0716L31.11 4.38243C28.243 2.34294 24.8698 1.13201 21.3602 0.882316C17.8506 0.632624 14.34 1.35381 11.2131 2.96685C8.08615 4.57989 5.46357 7.02254 3.6327 10.0271C1.80184 13.0317 0.833354 16.4823 0.833374 20.0008C0.833374 20.4428 1.00897 20.8667 1.32153 21.1793C1.63409 21.4918 2.05801 21.6674 2.50004 21.6674C2.94207 21.6674 3.36599 21.4918 3.67855 21.1793C3.99111 20.8667 4.16671 20.4428 4.16671 20.0008Z" fill="#FFD6DD"/>
<path d="M37.5 18.334C37.058 18.334 36.6341 18.5096 36.3215 18.8221C36.009 19.1347 35.8334 19.5586 35.8334 20.0007C35.8361 22.8348 35.0772 25.6176 33.6363 28.0581C32.1953 30.4986 30.1251 32.5071 27.6422 33.8737C25.1592 35.2402 22.3547 35.9146 19.522 35.8262C16.6892 35.7379 13.9322 34.8901 11.5392 33.3715L14.0626 31.2307C14.178 31.1329 14.2647 31.0056 14.3134 30.8624C14.362 30.7192 14.3707 30.5654 14.3386 30.4176C14.3065 30.2697 14.2347 30.1334 14.1311 30.0233C14.0274 29.9131 13.8957 29.8333 13.7501 29.7923L4.69089 27.269C4.55863 27.2322 4.41934 27.2287 4.28539 27.2587C4.15145 27.2888 4.027 27.3514 3.9231 27.4412C3.8192 27.5309 3.73908 27.6449 3.68984 27.773C3.64061 27.9011 3.62379 28.0394 3.64089 28.1757L4.80005 37.3981C4.81877 37.5471 4.87739 37.6883 4.96973 37.8067C5.06206 37.9251 5.18467 38.0164 5.32459 38.0708C5.46452 38.1253 5.61656 38.141 5.76465 38.1161C5.91274 38.0913 6.05137 38.0269 6.16589 37.9298L8.89005 35.619C11.7571 37.6585 15.1303 38.8694 18.6399 39.1191C22.1495 39.3688 25.6601 38.6476 28.787 37.0346C31.9139 35.4215 34.5365 32.9789 36.3674 29.9743C38.1982 26.9697 39.1667 23.5191 39.1667 20.0007C39.1667 19.5586 38.9911 19.1347 38.6786 18.8221C38.366 18.5096 37.9421 18.334 37.5 18.334Z" fill="#FFD6DD"/>
</g>
<defs>
<clipPath id="clip0_0_144">
<rect width="40" height="40" fill="white"/>
</clipPath>
</defs>
</svg>
