<svg width="20" height="20" viewBox="0 0 20 20" fill="none" xmlns="http://www.w3.org/2000/svg">
<g clip-path="url(#clip0_0_175)">
<path d="M0.833374 5V19.1667C0.833374 19.6667 1.16671 20 1.66671 20H18.3334C18.8334 20 19.1667 19.6667 19.1667 19.1667V5H0.833374ZM10 13.3333C7.25004 13.3333 5.00004 11.0833 5.00004 8.33333C5.00004 7.83333 5.33337 7.5 5.83337 7.5C6.33337 7.5 6.66671 7.83333 6.66671 8.33333C6.66671 10.1667 8.16671 11.6667 10 11.6667C11.8334 11.6667 13.3334 10.1667 13.3334 8.33333C13.3334 7.83333 13.6667 7.5 14.1667 7.5C14.6667 7.5 15 7.83333 15 8.33333C15 11.0833 12.75 13.3333 10 13.3333Z" fill="#B1B5C3"/>
<path d="M18.6667 3.33333L15.5834 0.25C15.4167 0.0833333 15.25 0 15 0H5.00004C4.75004 0 4.58337 0.0833333 4.41671 0.25L1.33337 3.33333H18.6667Z" fill="#B1B5C3"/>
</g>
<defs>
<clipPath id="clip0_0_175">
<rect width="20" height="20" fill="white"/>
</clipPath>
</defs>
</svg>
