<svg width="20" height="20" viewBox="0 0 20 20" fill="none" xmlns="http://www.w3.org/2000/svg">
<g clip-path="url(#clip0_0_183)">
<path d="M6.66671 8.33398H3.33337L3.33337 10.834H6.66671V8.33398Z" fill="#B1B5C3"/>
<path d="M11.6667 8.33398H8.33337V10.834H11.6667V8.33398Z" fill="#B1B5C3"/>
<path d="M6.66671 12.5H3.33337L3.33337 15H6.66671V12.5Z" fill="#B1B5C3"/>
<path d="M11.6667 12.5H8.33337V15H11.6667V12.5Z" fill="#B1B5C3"/>
<path d="M16.6667 8.33398H13.3334V10.834H16.6667V8.33398Z" fill="#B1B5C3"/>
<path d="M19.1667 2.5L15 2.5V0.833333C15 0.61232 14.9122 0.400358 14.7559 0.244078C14.5996 0.0877974 14.3877 0 14.1667 0C13.9457 0 13.7337 0.0877974 13.5774 0.244078C13.4211 0.400358 13.3333 0.61232 13.3333 0.833333V2.5L6.66667 2.5V0.833333C6.66667 0.61232 6.57887 0.400358 6.42259 0.244078C6.26631 0.0877974 6.05435 0 5.83333 0C5.61232 0 5.40036 0.0877974 5.24408 0.244078C5.0878 0.400358 5 0.61232 5 0.833333V2.5L0.833333 2.5C0.61232 2.5 0.400358 2.5878 0.244078 2.74408C0.0877974 2.90036 0 3.11232 0 3.33333L0 18.3333C0 18.5543 0.0877974 18.7663 0.244078 18.9226C0.400358 19.0789 0.61232 19.1667 0.833333 19.1667L19.1667 19.1667C19.3877 19.1667 19.5996 19.0789 19.7559 18.9226C19.9122 18.7663 20 18.5543 20 18.3333L20 3.33333C20 3.11232 19.9122 2.90036 19.7559 2.74408C19.5996 2.5878 19.3877 2.5 19.1667 2.5ZM18.3333 17.5L1.66667 17.5L1.66667 5.83333L18.3333 5.83333L18.3333 17.5Z" fill="#B1B5C3"/>
</g>
<defs>
<clipPath id="clip0_0_183">
<rect width="20" height="20" fill="white"/>
</clipPath>
</defs>
</svg>
