<svg width="40" height="40" viewBox="0 0 40 40" fill="none" xmlns="http://www.w3.org/2000/svg">
<path d="M36 9.66803H31.64C31.86 9.04803 32 8.36803 32 7.66804C32.0021 6.37769 31.5877 5.12111 30.8183 4.08523C30.0489 3.04935 28.9657 2.2895 27.7298 1.91872C26.4938 1.54794 25.1712 1.58604 23.9587 2.02734C22.7461 2.46865 21.7085 3.28959 21 4.36804L20 5.70804L19 4.34804C17.92 2.74804 16.1 1.66804 14 1.66804C10.68 1.66804 7.99999 4.34804 7.99999 7.66804C7.99999 8.36803 8.13999 9.04803 8.35999 9.66803H3.99999C1.78 9.66803 0.02 11.448 0.02 13.668L0 35.668C0 37.888 1.78 39.668 3.99999 39.668H36C38.22 39.668 39.9999 37.888 39.9999 35.668V13.668C39.9999 11.448 38.22 9.66803 36 9.66803ZM26 5.66804C27.1 5.66804 28 6.56804 28 7.66804C28 8.76803 27.1 9.66803 26 9.66803C24.9 9.66803 24 8.76803 24 7.66804C24 6.56804 24.9 5.66804 26 5.66804ZM14 5.66804C15.1 5.66804 16 6.56804 16 7.66804C16 8.76803 15.1 9.66803 14 9.66803C12.9 9.66803 12 8.76803 12 7.66804C12 6.56804 12.9 5.66804 14 5.66804ZM36 35.668H3.99999V31.668H36V35.668ZM36 25.668H3.99999V13.668H14.16L9.99999 19.328L13.24 21.668L18 15.188L20 12.468L22 15.188L26.76 21.668L30 19.328L25.84 13.668H36V25.668Z" fill="#FFD6DD"/>
</svg>
