<svg width="40" height="40" viewBox="0 0 40 40" fill="none" xmlns="http://www.w3.org/2000/svg">
<path d="M15.955 33.1507C14.6234 32.094 12.3642 30.834 9.16671 30.834C5.96921 30.834 3.71004 32.094 2.37837 33.1507C1.39671 33.9298 0.833374 35.1123 0.833374 36.394V38.334C0.833374 38.7948 1.20671 39.1673 1.66671 39.1673H16.6667C17.1267 39.1673 17.5 38.7948 17.5 38.334V36.394C17.5 35.1123 16.9367 33.9298 15.955 33.1507Z" fill="#FFD6DD"/>
<path d="M9.16675 28.334C11.9282 28.334 14.1667 26.0954 14.1667 23.334C14.1667 20.5726 11.9282 18.334 9.16675 18.334C6.40532 18.334 4.16675 20.5726 4.16675 23.334C4.16675 26.0954 6.40532 28.334 9.16675 28.334Z" fill="#FFD6DD"/>
<path d="M37.6217 33.1507C36.29 32.094 34.0308 30.834 30.8333 30.834C27.6358 30.834 25.3767 32.094 24.045 33.1507C23.0633 33.9298 22.5 35.1123 22.5 36.394V38.334C22.5 38.7948 22.8733 39.1673 23.3333 39.1673H38.3333C38.7933 39.1673 39.1667 38.7948 39.1667 38.334V36.394C39.1667 35.1123 38.6033 33.9298 37.6217 33.1507Z" fill="#FFD6DD"/>
<path d="M30.8334 28.334C33.5948 28.334 35.8334 26.0954 35.8334 23.334C35.8334 20.5726 33.5948 18.334 30.8334 18.334C28.0719 18.334 25.8334 20.5726 25.8334 23.334C25.8334 26.0954 28.0719 28.334 30.8334 28.334Z" fill="#FFD6DD"/>
<path d="M25.0001 9.16667C25.4601 9.16667 25.8334 8.79417 25.8334 8.33333C25.8334 7.8725 25.4601 7.5 25.0001 7.5H20.8334V3.33333C20.8334 2.8725 20.4601 2.5 20.0001 2.5C19.5401 2.5 19.1667 2.8725 19.1667 3.33333V7.5H15.0001C14.5401 7.5 14.1667 7.8725 14.1667 8.33333C14.1667 8.79417 14.5401 9.16667 15.0001 9.16667H19.1667V13.3333C19.1667 13.7942 19.5401 14.1667 20.0001 14.1667C20.4601 14.1667 20.8334 13.7942 20.8334 13.3333V9.16667H25.0001Z" fill="#FFD6DD"/>
</svg>
