<svg width="8" height="8" viewBox="0 0 8 8" fill="none" xmlns="http://www.w3.org/2000/svg">
<g clip-path="url(#clip0_1683_19319)">
<path d="M3.99947 1C3.83647 1 3.68347 1.0795 3.58997 1.2135L0.0899673 6.2135C-0.0170326 6.366 -0.0290327 6.5655 0.0559674 6.731C0.142468 6.8965 0.312967 7 0.499467 7L7.50047 7C7.68697 7 7.85747 6.8965 7.94397 6.731C8.02897 6.5655 8.01697 6.366 7.90997 6.2135L4.40997 1.2135C4.31647 1.0795 4.16347 1 4.00047 1C3.99997 1 3.99997 1 3.99947 1C3.99997 1 3.99997 1 3.99947 1Z" fill="#EF466F"/>
</g>
<defs>
<clipPath id="clip0_1683_19319">
<rect width="8" height="8" fill="white" transform="translate(8 8) rotate(-180)"/>
</clipPath>
</defs>
</svg>
