<svg width="40" height="40" viewBox="0 0 40 40" fill="none" xmlns="http://www.w3.org/2000/svg">
<path d="M29.306 1.53351L6.53284 35.6934L10.6931 38.4669L33.4663 4.307L29.306 1.53351Z" fill="#FFD6DD"/>
<path d="M19.1667 9.16732C19.1667 7.51914 18.6779 5.90798 17.7622 4.53757C16.8466 3.16716 15.5451 2.09906 14.0224 1.46833C12.4996 0.837595 10.8241 0.672567 9.20758 0.994111C7.59108 1.31565 6.10622 2.10933 4.94078 3.27477C3.77534 4.4402 2.98167 5.92506 2.66013 7.54157C2.33858 9.15808 2.50361 10.8336 3.13434 12.3563C3.76507 13.8791 4.83318 15.1806 6.20358 16.0962C7.57399 17.0119 9.18516 17.5007 10.8333 17.5007C13.0427 17.498 15.1607 16.6192 16.723 15.057C18.2852 13.4947 19.164 11.3766 19.1667 9.16732ZM7.5 9.16732C7.5 8.50805 7.6955 7.86358 8.06177 7.31542C8.42804 6.76726 8.94864 6.34001 9.55773 6.08772C10.1668 5.83543 10.837 5.76942 11.4836 5.89804C12.1302 6.02665 12.7242 6.34412 13.1904 6.8103C13.6565 7.27647 13.974 7.87042 14.1026 8.51702C14.2312 9.16362 14.1652 9.83385 13.9129 10.4429C13.6606 11.052 13.2334 11.5726 12.6852 11.9389C12.1371 12.3052 11.4926 12.5007 10.8333 12.5007C9.94928 12.5007 9.10144 12.1495 8.47631 11.5243C7.85119 10.8992 7.5 10.0514 7.5 9.16732Z" fill="#FFD6DD"/>
<path d="M29.1667 22.5C27.5185 22.5 25.9074 22.9887 24.537 23.9044C23.1666 24.8201 22.0984 26.1216 21.4677 27.6443C20.837 29.167 20.672 30.8426 20.9935 32.4591C21.315 34.0756 22.1087 35.5605 23.2742 36.7259C24.4396 37.8913 25.9244 38.685 27.541 39.0065C29.1575 39.3281 30.833 39.1631 32.3557 38.5323C33.8785 37.9016 35.1799 36.8335 36.0956 35.4631C37.0113 34.0927 37.5 32.4815 37.5 30.8333C37.4974 28.624 36.6186 26.5059 35.0563 24.9437C33.4941 23.3815 31.376 22.5026 29.1667 22.5ZM29.1667 34.1667C28.5074 34.1667 27.863 33.9712 27.3148 33.6049C26.7666 33.2386 26.3394 32.718 26.0871 32.1089C25.8348 31.4999 25.7688 30.8296 25.8974 30.183C26.026 29.5364 26.3435 28.9425 26.8097 28.4763C27.2759 28.0101 27.8698 27.6927 28.5164 27.564C29.163 27.4354 29.8332 27.5014 30.4423 27.7537C31.0514 28.006 31.572 28.4333 31.9383 28.9814C32.3045 29.5296 32.5 30.1741 32.5 30.8333C32.5 31.7174 32.1489 32.5652 31.5237 33.1904C30.8986 33.8155 30.0508 34.1667 29.1667 34.1667Z" fill="#FFD6DD"/>
</svg>
