<svg width="40" height="40" viewBox="0 0 40 40" fill="none" xmlns="http://www.w3.org/2000/svg">
<path d="M22.2425 25.7552C19.6975 24.701 16.7 24.166 13.3334 24.166C9.96671 24.166 6.96921 24.701 4.42421 25.7552C2.24254 26.6585 0.833374 28.7743 0.833374 31.1452V36.666C0.833374 37.1268 1.20671 37.4993 1.66671 37.4993H25C25.46 37.4993 25.8334 37.1268 25.8334 36.666V31.1452C25.8334 28.7743 24.4242 26.6585 22.2425 25.7552Z" fill="#FFD6DD"/>
<path d="M13.3334 21.6654C17.6259 21.6654 20.8334 17.2662 20.8334 13.332C20.8334 9.1962 17.4684 5.83203 13.3334 5.83203C9.19837 5.83203 5.83337 9.1962 5.83337 13.332C5.83337 17.2662 9.04087 21.6654 13.3334 21.6654Z" fill="#FFD6DD"/>
<path d="M37.6217 16.4827C36.29 15.426 34.0308 14.166 30.8333 14.166C27.6358 14.166 25.3767 15.426 24.045 16.4827C23.0633 17.2618 22.5 18.4443 22.5 19.726V21.666C22.5 22.1268 22.8733 22.4993 23.3333 22.4993H38.3333C38.7933 22.4993 39.1667 22.1268 39.1667 21.666V19.726C39.1667 18.4443 38.6033 17.2618 37.6217 16.4827Z" fill="#FFD6DD"/>
<path d="M30.8334 12.4993C33.6492 12.4993 35.8334 9.36352 35.8334 6.66602C35.8334 3.90852 33.5909 1.66602 30.8334 1.66602C28.0759 1.66602 25.8334 3.90852 25.8334 6.66602C25.8334 9.36352 28.0175 12.4993 30.8334 12.4993Z" fill="#FFD6DD"/>
</svg>
