<svg width="40" height="40" viewBox="0 0 40 40" fill="none" xmlns="http://www.w3.org/2000/svg">
<path d="M37.4758 16.2691C37.4233 16.0541 37.2866 15.87 37.0975 15.755L31.285 12.2441L25.7008 36.2325L37.38 16.8991C37.495 16.7108 37.5291 16.4833 37.4758 16.2691Z" fill="#FFD6DD"/>
<path d="M30.7141 6.6038C30.6 6.41464 30.4158 6.27797 30.2008 6.22547L24.1666 4.73047V34.0488L30.81 7.23464C30.8625 7.02047 30.8283 6.79297 30.7141 6.6038Z" fill="#FFD6DD"/>
<path d="M22.5 24.1673V2.50065C22.5 1.57982 21.7541 0.833984 20.8333 0.833984H5.83329C4.91246 0.833984 4.16663 1.57982 4.16663 2.50065V24.1673H22.5Z" fill="#FFD6DD"/>
<path d="M4.16663 25.834V37.5007C4.16663 38.4215 4.91246 39.1673 5.83329 39.1673H20.8333C21.7541 39.1673 22.5 38.4215 22.5 37.5007V25.834H4.16663ZM13.3333 35.834C11.955 35.834 10.8333 34.7123 10.8333 33.334C10.8333 31.9557 11.955 30.834 13.3333 30.834C14.7116 30.834 15.8333 31.9557 15.8333 33.334C15.8333 34.7123 14.7116 35.834 13.3333 35.834Z" fill="#FFD6DD"/>
</svg>
