<svg width="40" height="40" viewBox="0 0 40 40" fill="none" xmlns="http://www.w3.org/2000/svg">
<path d="M15 13.3333V1.66667C15 1.22464 15.1756 0.800716 15.4882 0.488155C15.8007 0.175595 16.2246 0 16.6667 0L23.3333 0C23.7754 0 24.1993 0.175595 24.5118 0.488155C24.8244 0.800716 25 1.22464 25 1.66667V13.3333H15Z" fill="#FFD6DD"/>
<path d="M30 16.666H10C9.55801 16.666 9.13409 16.8416 8.82153 17.1542C8.50897 17.4667 8.33337 17.8907 8.33337 18.3327V34.9993C8.33337 36.3254 8.86016 37.5972 9.79784 38.5349C10.7355 39.4726 12.0073 39.9993 13.3334 39.9993H26.6667C27.9928 39.9993 29.2646 39.4726 30.2022 38.5349C31.1399 37.5972 31.6667 36.3254 31.6667 34.9993V18.3327C31.6667 17.8907 31.4911 17.4667 31.1786 17.1542C30.866 16.8416 30.4421 16.666 30 16.666ZM24.9884 31.8693C24.9387 32.2733 24.743 32.645 24.4381 32.9146C24.1333 33.1842 23.7403 33.3329 23.3334 33.3327H16.6667C16.2595 33.3333 15.8661 33.1848 15.5609 32.9152C15.2557 32.6456 15.0597 32.2735 15.01 31.8693L14.1767 25.2027C14.1479 24.9682 14.1692 24.7303 14.2394 24.5047C14.3095 24.2791 14.4267 24.071 14.5834 23.8941C14.7401 23.7173 14.9325 23.5758 15.148 23.479C15.3635 23.3822 15.5971 23.3323 15.8334 23.3327H24.1667C24.4036 23.3322 24.6378 23.3822 24.8539 23.4794C25.0699 23.5766 25.2627 23.7188 25.4195 23.8964C25.5762 24.0739 25.6933 24.2829 25.763 24.5093C25.8326 24.7357 25.8532 24.9744 25.8234 25.2093L24.9884 31.8693Z" fill="#FFD6DD"/>
</svg>
