<svg width="40" height="40" viewBox="0 0 40 40" fill="none" xmlns="http://www.w3.org/2000/svg">
<g clip-path="url(#clip0_0_27)">
<path d="M38.0466 1.95267C36.7773 0.739516 35.0891 0.0625 33.3333 0.0625C31.5775 0.0625 29.8893 0.739516 28.62 1.95267L11.6666 18.906L21.0933 28.3327L38.0466 11.3793C39.2964 10.1292 39.9985 8.43377 39.9985 6.66601C39.9985 4.89825 39.2964 3.20286 38.0466 1.95267Z" fill="#FFD6DD"/>
<path d="M9.31001 21.2617L1.95335 28.6184C1.31661 29.2334 0.80873 29.969 0.459336 30.7824C0.109943 31.5957 -0.0739654 32.4705 -0.0816575 33.3557C-0.0893496 34.2409 0.0793285 35.1188 0.414534 35.9381C0.74974 36.7574 1.24476 37.5017 1.87071 38.1277C2.49666 38.7536 3.24101 39.2487 4.06032 39.5839C4.87963 39.9191 5.75749 40.0877 6.64269 40.0801C7.52788 40.0724 8.40268 39.8885 9.21604 39.5391C10.0294 39.1897 10.765 38.6818 11.38 38.045L18.7367 30.6884L9.31001 21.2617ZM6.66668 34.9984C6.33704 34.9984 6.01481 34.9006 5.74073 34.7175C5.46665 34.5344 5.25303 34.2741 5.12688 33.9695C5.00073 33.665 4.96773 33.3299 5.03204 33.0066C5.09635 32.6833 5.25508 32.3863 5.48817 32.1532C5.72125 31.9201 6.01823 31.7614 6.34153 31.6971C6.66483 31.6328 6.99994 31.6658 7.30448 31.7919C7.60903 31.9181 7.86933 32.1317 8.05246 32.4058C8.2356 32.6798 8.33335 33.0021 8.33335 33.3317C8.33335 33.7737 8.15775 34.1977 7.84519 34.5102C7.53263 34.8228 7.10871 34.9984 6.66668 34.9984Z" fill="#FFD6DD"/>
</g>
<defs>
<clipPath id="clip0_0_27">
<rect width="40" height="40" fill="white"/>
</clipPath>
</defs>
</svg>
