<svg width="16" height="16" viewBox="0 0 16 16" fill="none" xmlns="http://www.w3.org/2000/svg">
<path d="M7.99996 14.666C8.73329 14.666 9.33329 14.066 9.33329 13.3327H6.66663C6.66663 13.6863 6.8071 14.0254 7.05715 14.2755C7.3072 14.5255 7.64634 14.666 7.99996 14.666ZM12 10.666V7.33268C12 5.28602 10.9066 3.57268 8.99996 3.11935V2.66602C8.99996 2.11268 8.55329 1.66602 7.99996 1.66602C7.44663 1.66602 6.99996 2.11268 6.99996 2.66602V3.11935C5.08663 3.57268 3.99996 5.27935 3.99996 7.33268V10.666L2.66663 11.9993V12.666H13.3333V11.9993L12 10.666Z" fill="#EF466F"/>
</svg>
